# xmcd CD database file
#
# Track frame offsets:
#	150
#	24475
#	59681
#	86425
#	126529
#	160534
#	188939
#	220030
#	255383
#	282059
#
# Disc length: 4181 seconds
#
# Revision: 0
# Processed by: cddbd v1.5.1PL2 Copyright (c) Steve Scherf et al.
# Submitted via: CDex 1.51
#
DISCID=8610530a
DTITLE=Various Artist - Exhibition3 CD1 (Mixed by Serge Devant)
DYEAR=2005
DGENRE=Trance
TTITLE0=Probspot - Drifter
TTITLE1=Luminary - My World (Andy Moor Mix)
TTITLE2=Serge Devant - Always Have Tomorrow (Filo and Peri Mix)
TTITLE3=Eelke Kleijn - Witchcraft
TTITLE4=Tilt - New Day (Serge Devant Filthy Brooklyn Dub)
TTITLE5=Leama and Moor - Fact Of The Matter
TTITLE6=Lustral - The Price We Pay For Love (Serge Devant Metallic Mix)
TTITLE7=R-Ten - Voiceless (Instrumental)
TTITLE8=Tilt - Electronic Poledancer (Gardner and Star Mix)
TTITLE9=Matt Cerf - Let Me Breathe (Instrumental)
EXTD=YEAR: 2005
EXTT0=
EXTT1=
EXTT2=
EXTT3=
EXTT4=
EXTT5=
EXTT6=
EXTT7=
EXTT8=
EXTT9=
PLAYORDER=
